<?xml version="1.0" standalone="no"?>
<!DOCTYPE svg PUBLIC "-//W3C//DTD SVG 20010904//EN"
 "http://www.w3.org/TR/2001/REC-SVG-20010904/DTD/svg10.dtd">
<svg version="1.0" xmlns="http://www.w3.org/2000/svg"
 width="1024.000000pt" height="1024.000000pt" viewBox="0 0 1024.000000 1024.000000"
 preserveAspectRatio="xMidYMid meet">
<metadata>
Created by potrace 1.14, written by Peter Selinger 2001-2017
</metadata>
<g transform="translate(0.000000,1024.000000) scale(0.100000,-0.100000)"
fill="#000000" stroke="none">
<path d="M2015 8390 c-27 -4 -75 -11 -105 -15 -45 -5 -141 -25 -241 -49 -94
-23 -341 -126 -355 -147 -3 -5 -9 -7 -14 -4 -4 3 -13 -2 -20 -10 -7 -8 -17
-15 -22 -15 -13 0 -107 -62 -203 -134 -107 -80 -277 -251 -356 -356 -35 -47
-68 -88 -74 -92 -7 -5 -7 -8 0 -8 6 0 6 -3 0 -8 -13 -9 -38 -48 -77 -121 -17
-31 -41 -74 -53 -97 -29 -52 -92 -210 -111 -277 -8 -29 -18 -59 -21 -67 -3 -8
-7 -19 -8 -25 -2 -5 -28 -109 -58 -230 -56 -226 -94 -387 -103 -440 -3 -16 -7
-37 -9 -45 -2 -8 -7 -28 -10 -45 -2 -16 -7 -41 -10 -55 -3 -14 -8 -38 -10 -55
-3 -16 -12 -64 -20 -105 -8 -41 -17 -93 -20 -115 -3 -22 -10 -68 -15 -101 -6
-34 -11 -74 -12 -88 -1 -14 -5 -26 -8 -26 -3 0 -5 -17 -6 -38 -1 -20 -4 -57
-7 -82 -16 -110 -24 -191 -41 -377 -29 -308 -29 -871 -1 -1158 19 -198 21
-213 46 -365 25 -157 43 -248 75 -375 14 -55 27 -110 30 -122 2 -12 8 -33 13
-45 5 -13 10 -27 11 -33 1 -5 4 -14 5 -20 1 -5 11 -37 21 -70 10 -33 19 -62
19 -65 1 -3 4 -12 7 -20 3 -8 16 -44 28 -80 24 -70 87 -230 116 -295 10 -22
18 -42 19 -45 5 -21 105 -207 143 -264 49 -74 191 -226 211 -226 6 0 11 -4 11
-9 0 -12 156 -90 205 -102 22 -6 58 -14 79 -19 43 -9 246 -6 286 4 14 3 39 9
55 12 64 11 215 67 322 119 89 43 309 179 333 205 3 3 41 34 85 70 120 98 305
274 385 366 107 125 144 169 197 239 68 91 186 265 229 340 16 27 34 59 41 70
7 11 44 85 83 165 191 389 269 511 420 659 59 58 193 161 209 161 5 0 11 3 13
8 3 7 77 44 126 63 12 5 32 13 45 18 40 17 61 22 152 41 75 16 124 19 287 16
109 -1 201 -5 204 -9 4 -3 14 -2 23 3 10 5 23 5 30 1 7 -5 28 -5 47 -1 19 4
34 5 34 1 0 -4 192 -6 428 -5 235 2 436 3 447 3 11 0 25 0 30 1 98 7 463 6
473 -2 6 -6 12 -8 12 -5 0 3 15 1 33 -4 17 -6 44 -12 59 -14 78 -11 272 -101
348 -162 121 -95 211 -186 270 -272 14 -20 33 -43 43 -52 9 -9 17 -19 17 -22
0 -4 20 -37 43 -74 24 -37 74 -131 111 -208 107 -221 140 -283 210 -398 22
-37 46 -76 51 -85 52 -88 223 -316 326 -435 50 -57 260 -269 325 -328 16 -14
70 -58 119 -97 50 -40 95 -77 102 -82 30 -24 163 -107 208 -130 28 -14 52 -28
55 -31 3 -3 49 -25 104 -48 109 -46 239 -87 325 -100 57 -9 250 -8 286 2 152
41 256 99 355 198 64 64 160 187 160 204 0 5 11 23 25 41 14 18 25 37 25 43 0
5 9 25 19 43 11 18 45 94 76 168 31 74 61 144 66 155 33 71 164 512 185 618 3
19 25 122 29 137 1 3 5 30 10 60 5 30 9 57 10 60 1 3 5 28 10 55 4 28 9 58 11
69 2 10 6 44 9 75 4 31 8 67 11 81 38 217 50 957 20 1230 -2 19 -7 73 -10 120
-3 47 -8 96 -10 110 -3 14 -8 54 -11 90 -11 107 -14 137 -19 167 -3 15 -8 51
-11 78 -8 53 -51 323 -60 365 -2 13 -7 42 -11 64 -3 22 -7 43 -9 46 -2 3 -6
21 -9 40 -3 19 -8 46 -11 60 -3 14 -8 40 -11 59 -3 19 -9 44 -14 55 -4 12 -8
24 -8 29 -3 27 -17 93 -34 162 -11 44 -22 89 -24 100 -9 54 -21 103 -27 112
-4 7 -9 24 -11 40 -4 30 -72 277 -83 303 -3 8 -7 20 -8 25 0 6 -6 21 -12 35
-6 14 -23 54 -38 90 -49 117 -182 344 -251 430 -74 91 -256 280 -269 280 -2 0
-17 12 -32 26 -47 44 -285 203 -313 210 -3 0 -41 18 -85 39 -44 21 -82 39 -85
40 -3 0 -48 15 -100 32 -109 37 -196 59 -260 69 -25 3 -56 8 -70 10 -80 14
-175 19 -335 19 -212 -1 -301 -8 -485 -42 -105 -19 -119 -21 -150 -28 -14 -4
-36 -8 -50 -11 -14 -3 -33 -7 -42 -10 -9 -3 -25 -7 -35 -9 -10 -2 -58 -16
-108 -30 -49 -15 -97 -28 -105 -30 -8 -2 -50 -15 -94 -30 -67 -22 -215 -65
-223 -65 -2 0 -4 0 -5 -1 -10 -3 -39 -8 -78 -14 -25 -3 -58 -8 -75 -11 -70
-12 -241 -14 -1385 -15 -1102 0 -1264 2 -1355 16 -16 3 -48 7 -70 11 -33 5
-93 18 -175 39 -8 2 -73 22 -145 45 -71 23 -134 43 -140 44 -5 2 -30 8 -55 15
-25 7 -53 15 -62 17 -44 10 -56 13 -113 28 -33 8 -77 17 -97 20 -21 2 -41 7
-45 9 -4 3 -30 8 -57 11 -27 4 -52 9 -56 11 -3 2 -32 6 -65 9 -33 4 -73 9 -90
12 -49 8 -456 11 -510 4z m6075 -997 c69 -26 120 -60 181 -123 53 -53 113
-157 125 -213 9 -44 20 -135 19 -149 -2 -7 -5 -33 -8 -58 -12 -95 -50 -179
-116 -263 -38 -47 -75 -76 -141 -109 -25 -13 -48 -27 -52 -33 -4 -5 -8 -7 -8
-3 0 3 -21 0 -46 -8 -30 -9 -78 -12 -137 -10 -140 6 -235 52 -336 161 -45 50
-90 125 -97 162 -1 6 -7 28 -14 47 -6 19 -13 66 -14 103 -8 180 73 344 216
441 39 27 90 52 108 54 3 0 16 5 30 10 14 5 48 12 75 15 28 3 51 6 53 8 6 5
122 -17 162 -32z m-5595 -17 c162 -36 294 -93 434 -186 98 -66 245 -205 296
-281 16 -24 32 -46 35 -49 11 -10 66 -106 97 -170 45 -92 98 -255 109 -335 1
-11 6 -45 10 -75 13 -102 7 -325 -12 -392 -3 -9 -7 -27 -9 -40 -12 -61 -40
-154 -49 -160 -6 -4 -8 -8 -4 -8 8 0 -13 -50 -58 -144 -44 -89 -48 -96 -56
-96 -5 0 -8 -6 -8 -13 0 -8 -8 -23 -17 -35 -10 -11 -29 -36 -43 -54 -38 -50
-91 -109 -132 -148 -62 -59 -98 -90 -103 -90 -3 0 -14 -8 -25 -17 -43 -37
-196 -120 -282 -153 -57 -22 -154 -49 -203 -57 -16 -3 -50 -8 -75 -13 -70 -13
-296 -4 -385 15 -44 9 -84 18 -90 19 -5 1 -14 4 -20 7 -5 4 -28 12 -50 19 -94
30 -251 115 -341 185 -78 60 -213 205 -267 286 -96 147 -162 294 -193 434 -22
104 -28 165 -29 300 0 213 31 364 116 552 54 120 190 310 277 388 19 16 47 41
61 54 54 49 266 178 306 187 6 1 40 14 78 28 37 14 69 26 72 26 3 0 16 2 28 6
141 35 400 40 532 10z m6260 -750 c176 -17 331 -147 396 -332 25 -71 32 -195
15 -269 -8 -30 -11 -57 -8 -60 3 -3 0 -5 -6 -5 -7 0 -12 -7 -12 -15 0 -26 -51
-112 -94 -157 -107 -111 -188 -148 -337 -154 -81 -3 -105 0 -161 20 -98 36
-123 51 -191 119 -188 188 -197 493 -22 694 38 44 131 116 154 119 3 0 23 8
43 17 20 9 61 20 90 23 29 3 55 8 56 9 2 2 9 2 15 0 7 -2 35 -6 62 -9z m-1515
-13 c19 -4 40 -8 45 -8 16 -3 69 -24 85 -35 8 -5 29 -17 45 -26 44 -24 126
-113 159 -173 49 -91 64 -157 61 -268 -5 -145 -49 -247 -150 -346 -43 -43
-149 -110 -169 -108 -3 0 -23 -6 -44 -13 -44 -16 -165 -18 -219 -5 -21 6 -43
11 -48 12 -36 8 -130 66 -172 105 -178 166 -214 443 -84 647 104 164 308 255
491 218z m791 -793 c216 -55 369 -253 371 -480 1 -141 -39 -250 -128 -349
-126 -140 -296 -191 -484 -146 -36 8 -88 32 -103 46 -11 10 -23 16 -27 14 -6
-4 -102 85 -130 121 -77 100 -113 264 -88 404 32 184 194 354 368 389 103 20
146 21 221 1z m-3486 -705 c33 0 68 3 78 8 9 4 17 4 17 0 0 -9 133 -9 148 1
21 12 27 -20 27 -141 0 -103 -2 -123 -15 -124 -8 -1 -135 -2 -283 -3 -230 -1
-268 1 -272 14 -2 8 -3 67 -2 130 l2 115 102 1 c57 0 106 3 109 7 4 3 12 3 18
0 5 -4 37 -7 71 -8z m1088 3 c51 -1 97 0 102 2 6 1 15 1 20 0 6 -1 39 -2 75
-2 l65 0 1 -129 c0 -84 -4 -129 -10 -130 -6 -1 -134 -2 -283 -3 -176 -1 -274
3 -275 9 0 6 -2 15 -2 20 -1 6 -4 15 -8 20 -4 6 -4 16 0 22 4 6 6 51 6 101
l-2 90 95 0 c52 0 97 2 100 6 3 3 10 3 15 0 5 -3 51 -6 101 -6z"/>
<path d="M7873 7103 c-13 -2 -23 -8 -23 -13 0 -4 -10 -10 -22 -14 -13 -3 -36
-26 -52 -52 -77 -123 2 -284 143 -290 69 -3 135 35 166 95 38 74 25 169 -29
222 -52 51 -107 67 -183 52z"/>
<path d="M2188 7084 c-2 -1 -25 -5 -53 -8 -90 -11 -223 -51 -285 -86 -14 -8
-28 -13 -32 -12 -5 1 -8 -2 -8 -8 0 -6 -5 -10 -11 -10 -17 0 -119 -76 -178
-133 -59 -58 -141 -159 -141 -176 0 -6 -4 -11 -10 -11 -5 0 -10 -6 -10 -14 0
-7 -7 -19 -15 -26 -8 -6 -14 -15 -13 -18 1 -4 -8 -27 -19 -52 -21 -46 -34 -77
-39 -95 -129 -417 10 -848 356 -1102 83 -61 242 -131 335 -148 221 -39 404
-16 590 76 145 72 279 191 366 325 62 95 130 260 142 344 3 19 6 35 7 35 9 0
13 213 5 280 -6 53 -12 90 -15 90 -1 0 -3 7 -5 15 -56 271 -270 537 -526 653
-67 31 -177 64 -244 73 -51 7 -192 13 -197 8z m167 -186 c18 -19 36 -45 41
-58 4 -14 8 -142 9 -285 0 -143 3 -264 7 -270 4 -6 93 -9 240 -8 128 0 250 -3
272 -9 124 -31 151 -203 44 -280 -30 -21 -45 -23 -153 -24 -66 -1 -124 -3
-130 -4 -5 -1 -14 -1 -20 0 -23 4 -255 5 -256 0 -1 -3 -3 -120 -4 -261 -1
-229 -3 -259 -21 -294 -25 -50 -61 -76 -116 -82 -78 -9 -148 40 -163 113 -5
25 -9 325 -4 350 1 5 1 11 0 14 -2 3 -3 41 -4 85 l-2 79 -255 1 c-288 0 -301
3 -344 69 -48 74 -29 163 47 220 27 20 41 21 288 22 143 1 262 4 265 7 3 3 5
126 5 273 0 255 1 271 22 306 51 92 164 109 232 36z"/>
<path d="M8628 6306 c-36 -15 -88 -65 -99 -94 -18 -47 -19 -106 -3 -152 35
-96 152 -143 244 -97 36 18 70 49 70 64 0 7 4 13 9 13 5 0 13 14 16 32 28 126
-41 231 -160 242 -27 2 -62 -1 -77 -8z"/>
<path d="M7090 6294 c-71 -31 -111 -91 -112 -168 -2 -107 73 -188 176 -189
159 -2 240 193 131 313 -47 52 -132 72 -195 44z"/>
<path d="M7844 5504 c-68 -35 -107 -98 -107 -173 0 -48 27 -109 60 -140 28
-26 95 -49 132 -45 39 5 103 33 114 50 4 7 13 19 20 26 61 62 37 208 -44 264
-48 33 -130 41 -175 18z"/>
</g>
</svg>
